<?xml version="1.0" encoding="UTF-8"?>
<svg id="Layer_1" xmlns="http://www.w3.org/2000/svg" version="1.1" viewBox="0 0 4171.9 756.48">
  <!-- Generator: Adobe Illustrator 30.5.1, SVG Export Plug-In . SVG Version: 2.1.4 Build 3)  -->
  <defs>
    <style>
      .st0 {
        fill: #ef5551;
      }

      .st1 {
        stroke-width: 34px;
      }

      .st1, .st2 {
        fill: none;
        stroke: #ef5551;
        stroke-linecap: round;
        stroke-linejoin: round;
      }

      .st2 {
        stroke-width: 48px;
      }

      .st3 {
        fill: #1b2026;
      }
    </style>
  </defs>
  <path class="st0" d="M260,202c36,0,67.97,3.87,95.9,11.6,28,7.6,49.83,18.23,65.5,31.9,15.73,13.6,23.6,29.43,23.6,47.5,0,11.33-3.33,21.83-10,31.5-6.67,9.73-16.67,14.6-30,14.6-9.27,0-17.1-1.67-23.5-5-6.33-3.33-12.17-7.37-17.5-12.1-5.27-4.67-11.93-9.33-20-14-7.4-4-18.27-7.3-32.6-9.9-14.27-2.67-27.1-4-38.5-4-35.27,0-65.77,8-91.5,24-25.67,15.93-45.67,37.6-60,65-14.27,27.33-21.4,58.27-21.4,92.8s7.13,65.8,21.4,93.2c14.33,27.27,34,48.93,59,65,25,15.93,54.17,23.9,87.5,23.9,20,0,36.37-1.47,49.1-4.4,12.73-3,23.73-6.87,33-11.6,10-6,18.47-12.13,25.4-18.4,7.13-6.33,17-9.5,29.6-9.5,14.67,0,25.8,4.47,33.4,13.4,7.73,8.93,11.6,20.07,11.6,33.4,0,14.73-8.87,28.97-26.6,42.7-17.6,13.67-41.1,24.8-70.5,33.4-29.27,8.67-61.53,13-96.8,13-52.13,0-97.37-11.97-135.7-35.9-38.33-24.07-68-56.73-89-98C10.47,574.77,0,528.03,0,475.9s10.97-99.37,32.9-140.3c22.13-41,52.83-73.5,92.1-97.5,39.33-24.07,84.33-36.1,135-36.1Z"/>
  <path class="st0" d="M608,740c-14.67,0-26.7-4.83-36.1-14.5-9.27-9.73-13.9-21.87-13.9-36.4v-424.1c0-14.67,4.63-26.8,13.9-36.4,9.4-9.67,21.43-14.5,36.1-14.5s25.77,4.83,35.5,14.5c9.67,9.6,14.5,21.73,14.5,36.4v112l-10-42.9c5.33-18.8,13.47-36.17,24.4-52.1,11-16,24.17-30,39.5-42,15.4-12,32.6-21.33,51.6-28,19.07-6.67,38.9-10,59.5-10,17.27,0,32.27,4.7,45,14.1,12.73,9.27,19.1,20.87,19.1,34.8,0,18.07-4.7,31.27-14.1,39.6s-19.7,12.5-30.9,12.5c-10,0-19.7-2.13-29.1-6.4-9.4-4.4-20.4-6.6-33-6.6-14.07,0-28.43,3.7-43.1,11.1-14.6,7.27-27.93,18.1-40,32.5-12,14.27-21.47,31.1-28.4,50.5-7,19.27-10.5,40.93-10.5,65v240c0,14.53-4.83,26.67-14.5,36.4-9.73,9.67-21.57,14.5-35.5,14.5Z"/>
  <path class="st0" d="M1418.9,205.9c14.73,0,26.73,4.87,36,14.6,9.33,9.67,14,21.83,14,36.5v432.1c0,14.53-4.67,26.67-14,36.4-9.27,9.67-21.27,14.5-36,14.5-13.93,0-25.73-4.83-35.4-14.5-9.73-9.73-14.6-21.87-14.6-36.4v-72.1l21.1,3c0,12-4.83,25.33-14.5,40s-22.83,28.83-39.5,42.5c-16.67,13.67-36.37,25.03-59.1,34.1-22.6,8.93-46.93,13.4-73,13.4-45.93,0-87.23-11.83-123.9-35.5-36.67-23.6-65.67-56.1-87-97.5-21.33-41.33-32-88.37-32-141.1s10.67-101.37,32-142.3c21.33-41.07,50.13-73.27,86.4-96.6,36.33-23.33,76.87-35,121.6-35,28.6,0,55.1,4.7,79.5,14.1,24.4,9.27,45.53,21.23,63.4,35.9,18.07,14.73,31.93,30.27,41.6,46.6,9.67,16.27,14.5,31.73,14.5,46.4l-31.1,3v-91c0-14.07,4.87-26.1,14.6-36.1,9.67-10,21.47-15,35.4-15ZM1215,658c31.4,0,59.07-7.97,83-23.9,23.93-16.07,42.57-37.9,55.9-65.5,13.33-27.73,20-58.63,20-92.7s-6.67-65.47-20-92.8c-13.33-27.4-31.97-49.07-55.9-65-23.93-16-51.6-24-83-24s-57.9,8-81.5,24c-23.67,15.93-42.33,37.6-56,65-13.6,27.33-20.4,58.27-20.4,92.8s6.8,64.97,20.4,92.7c13.67,27.6,32.33,49.43,56,65.5,23.6,15.93,50.77,23.9,81.5,23.9Z"/>
  <path class="st0" d="M2234,209.1c12.67,0,23.8,4.83,33.4,14.5,9.67,9.6,14.5,22.03,14.5,37.3,0,3.33-.3,6.67-.9,10-.6,3.33-1.6,6.37-3,9.1l-152.9,428c-4.07,11.33-11.1,19.87-21.1,25.6-10,5.6-20.33,7.73-31,6.4-19.33-1.33-33.63-12-42.9-32l-113.2-300,23.2,2-104.1,298c-9.4,20-23.73,30.67-43,32-10,1.33-20.2-.8-30.6-6.4-10.33-5.73-17.47-14.27-21.4-25.6l-154.1-428c-2.6-6.07-3.9-12.43-3.9-19.1,0-13.93,4.5-26.07,13.5-36.4,9.07-10.27,21.23-15.4,36.5-15.4,10.67,0,20.17,2.63,28.5,7.9,8.33,5.33,14.17,13.3,17.5,23.9l127.9,361.1-22.9-2,104-273c8.67-20.73,24-31.1,46-31.1,11.93,0,21.23,2.73,27.9,8.2,6.67,5.27,12.03,12.9,16.1,22.9l106,273.9-27.1,3.2,129.1-363.2c6.67-21.2,22.67-31.8,48-31.8Z"/>
  <path class="st3" d="M2641,.9c12.73,0,25.77,1.67,39.1,5s24.47,8.87,33.4,16.6,13.4,18.27,13.4,31.6c0,13.33-4,24.17-12,32.5-7.93,8.33-17.27,12.5-28,12.5-6.67,0-15.67-1.53-27-4.6-11.27-3-22.57-4.5-33.9-4.5-15.33,0-27.67,3.5-37,10.5-9.27,6.93-15.93,15.63-20,26.1-4,10.27-6,20.4-6,30.4v532.1c0,14.53-4.83,26.67-14.5,36.4-9.67,9.67-21.5,14.5-35.5,14.5s-26.7-4.83-36.1-14.5c-9.27-9.73-13.9-21.87-13.9-36.4V158c0-45.93,15.17-83.6,45.5-113S2583,.9,2641,.9ZM2661,223c13.33,0,24.33,4.37,33,13.1,8.6,8.67,12.9,19.67,12.9,33,0,13.33-4.3,24.3-12.9,32.9-8.67,8.67-19.67,13-33,13h-259.1c-12.6,0-23.43-4.33-32.5-13-8.93-8.6-13.4-19.57-13.4-32.9s4.47-24.33,13.4-33c9.07-8.73,19.9-13.1,32.5-13.1h259.1Z"/>
  <path class="st2" d="M2991.12,610.48c33.33-5.33,52.67-55.33,58-150,5.33-88,16.67-139.67,34-155-14.67-43.33-45.33-69-92-77-46.67,8-77.33,33.67-92,77,17.33,15.33,28.67,67,34,155,5.33,94.67,24.67,144.67,58,150Z"/>
  <path class="st2" d="M2941.12,510.48h100"/>
  <path class="st2" d="M2935.12,430.48h112"/>
  <path class="st2" d="M3083.12,309.48c41.33-21.33,68.67-56.67,82-106"/>
  <path class="st2" d="M3155.75,100.51c-27.59,7.97-43.5,36.79-35.54,64.38s36.79,43.5,64.38,35.54c27.59-7.97,43.5-36.79,35.54-64.38-2.46-8.53-7.07-16.29-13.38-22.54"/>
  <path class="st2" d="M2906.13,322.77c-41.33-21.33-68.67-56.67-82-106"/>
  <path class="st2" d="M2827.54,108.45c27.59,7.97,43.5,36.79,35.54,64.38s-36.79,43.5-64.38,35.54c-27.59-7.97-43.5-36.79-35.54-64.38,2.46-8.53,7.07-16.29,13.38-22.54"/>
  <path class="st1" d="M3017.12,256.48c21.33-64,39.33-126,54-186"/>
  <path class="st1" d="M2965.12,256.48c-21.33-64-39.33-126-54-186"/>
  <path class="st2" d="M2991.12,604.48v128"/>
  <path class="st2" d="M2991.12,604.48l-52,98"/>
  <path class="st2" d="M2991.12,604.48l52,98"/>
  <path class="st2" d="M2991.12,604.48l-96,52"/>
  <path class="st2" d="M2991.12,604.48l96,52"/>
  <path class="st3" d="M3210.1,658c-6.07-9.27-8.8-20.07-8.2-32.4.73-12.4,7.77-22.9,21.1-31.5,9.27-6.07,19.07-8.57,29.4-7.5,10.4.93,20.23,6.07,29.5,15.4,18.8,20.67,39.63,37.03,62.5,49.1,23.07,12,50.93,18,83.6,18,13.33-.73,27-2.93,41-6.6,14.07-3.67,26.1-10.33,36.1-20,10-9.67,15-23.83,15-42.5,0-16.67-5.37-30-16.1-40-10.67-10-24.7-18.17-42.1-24.5-17.27-6.4-35.9-12.23-55.9-17.5-21.33-5.93-42.83-12.57-64.5-19.9-21.67-7.4-41.2-16.93-58.6-28.6-17.33-11.67-31.5-26.8-42.5-45.4-10.93-18.8-16.4-41.83-16.4-69.1,0-31.33,8.8-58.3,26.4-80.9,17.67-22.73,40.67-40.4,69-53,28.33-12.73,59.17-19.1,92.5-19.1,19.4,0,39.77,2.5,61.1,7.5,21.4,5,42.1,12.87,62.1,23.6,20,10.67,37.27,24.63,51.8,41.9,6.67,8.67,10.53,19.03,11.6,31.1,1.07,12-4.47,22.63-16.6,31.9-7.87,6.67-17.5,9.67-28.9,9-11.33-.73-20.63-4.43-27.9-11.1-12.73-15.93-29.1-28.37-49.1-37.3-20-9.07-42.67-13.6-68-13.6-12.67,0-25.83,1.83-39.5,5.5-13.67,3.6-25.17,10.1-34.5,19.5-9.27,9.4-13.9,23.03-13.9,40.9,0,16.67,5.47,30,16.4,40,11,10,25.47,18.33,43.4,25,18,6.67,37.7,12.73,59.1,18.2,20.73,5.27,41.23,11.6,61.5,19,20.33,7.33,38.67,16.83,55,28.5,16.4,11.67,29.73,26.67,40,45,10.33,18.33,15.5,41.43,15.5,69.3,0,32.73-9.53,60.6-28.6,83.6-18.93,23.07-42.93,40.57-72,52.5-29,12-59.47,18-91.4,18-38.07,0-75.93-6.83-113.6-20.5-37.6-13.6-69.37-37.43-95.3-71.5Z"/>
  <path class="st3" d="M3996,205c46.07,0,81.73,9.83,107,29.5,25.33,19.73,43.17,46.27,53.5,79.6,10.27,33.33,15.4,70,15.4,110v265c0,14.53-4.83,26.67-14.5,36.4-9.6,9.67-21.43,14.5-35.5,14.5s-26.5-4.83-35.9-14.5c-9.4-9.73-14.1-21.87-14.1-36.4v-265c0-23.33-3.17-44.7-9.5-64.1-6.27-19.4-17.27-34.7-33-45.9-15.6-11.4-37.4-17.1-65.4-17.1-25.93,0-49.13,5.7-69.6,17.1-20.27,11.2-35.93,26.5-47,45.9-10.93,19.4-16.4,40.77-16.4,64.1v265c0,14.53-4.83,26.67-14.5,36.4-9.73,9.67-21.57,14.5-35.5,14.5-14.67,0-26.7-4.83-36.1-14.5-9.27-9.73-13.9-21.87-13.9-36.4V50.9c0-14.53,4.63-26.67,13.9-36.4,9.4-9.67,21.43-14.5,36.1-14.5s25.77,4.83,35.5,14.5c9.67,9.73,14.5,21.87,14.5,36.4v273.2l-18,10c4.73-14.73,12.57-29.73,23.5-45,11-15.47,24.63-29.5,40.9-42.1,16.33-12.67,34.5-22.8,54.5-30.4,20-7.73,41.37-11.6,64.1-11.6Z"/>
</svg>