<?xml version="1.0" encoding="UTF-8"?>
<svg xmlns="http://www.w3.org/2000/svg" version="1.1" viewBox="419 824 2395 481">
  <defs>
    <style>
      .fg{fill:#1b2026;}
      .cf{fill:#ef5551;}
      .eye{fill:#1b2026;}
      .s20,.s45{fill:none;stroke:#ef5551;stroke-miterlimit:10;}
      .s20{stroke-width:20px;}
      .s45{stroke-width:45px;}
    </style>
  </defs>
  <g id="Layer_1">
    <g transform="translate(408.1022 1277.269) scale(.9753 1)">
      <path class="cf" d="M168.814 8.302L168.814 8.302Q97.968 8.302 58.947-29.335Q19.926-66.972 19.926-135.605L19.926-135.605Q19.926-182.652 38.191-218.075Q56.456-253.498 89.665-273.147Q122.875-292.796 166.600-292.796L166.600-292.796Q187.633-292.796 209.773-288.092Q231.912-283.387 244.089-277.298L244.089-277.298L229.145-211.433Q216.415-217.522 200.917-221.119Q185.419-224.717 172.689-224.717L172.689-224.717Q138.926-224.717 117.893-201.470Q96.861-178.224 96.861-140.033L96.861-140.033Q96.861-101.289 118.447-80.256Q140.033-59.223 178.777-59.223L178.777-59.223Q204.791-59.223 234.680-69.186L234.680-69.186L246.303-6.088Q227.484 1.107 208.389 4.705Q189.294 8.302 168.814 8.302Z M397.959 0L319.917 0L319.917-285.047L397.959-285.047L397.959-238.554L402.387-238.554Q416.778-264.015 432.552-278.682Q448.327-293.350 473.787-293.350L473.787-293.350Q483.750-293.350 490.392-291.136L490.392-291.136L482.090-207.005Q476.001-208.666 470.466-209.773Q464.932-210.880 458.843-210.880L458.843-210.880Q438.364-210.880 426.187-198.980Q414.011-187.080 397.959-167.154L397.959-167.154L397.959 0Z M638.174 8.302L638.174 8.302Q594.448 8.302 568.157-29.058Q541.867-66.419 541.867-131.731L541.867-131.731Q541.867-210.326 581.718-251.561Q621.569-292.796 696.290-292.796L696.290-292.796Q738.356-292.796 794.812-279.512L794.812-279.512L794.812 0L720.644 0L722.304-45.386L720.090-45.386Q691.309 8.302 638.174 8.302ZM654.779-59.777L654.779-59.777Q673.044-59.777 689.649-79.149Q706.253-98.521 719.537-126.749L719.537-126.749L719.537-219.736Q710.681-222.503 701.272-223.610Q691.863-224.717 684.114-224.717L684.114-224.717Q617.141-224.717 617.141-135.052L617.141-135.052Q617.141-100.182 627.104-79.979Q637.067-59.777 654.779-59.777Z M1015.101 0L931.524 0L848.500-285.047L928.203-285.047L979.124-96.307L1033.919-283.387L1121.924-290.582L1181.148-90.772L1233.176-285.047L1307.343-285.047L1220.445 0L1135.208 0L1076.538-207.005L1015.101 0Z"/>
      <path class="fg" d="M1563.029 0L1368.201 0L1368.201-66.972L1418.568-66.972L1418.568-218.075L1368.201-218.075L1368.201-285.047L1418.568-285.047L1418.568-319.917Q1418.568-361.429 1445.412-386.613Q1472.257-411.797 1515.982-411.797L1515.982-411.797Q1546.978-411.797 1584.615-396.299L1584.615-396.299L1557.494-334.861Q1538.675-344.271 1523.731-344.271L1523.731-344.271Q1496.610-344.271 1496.610-316.043L1496.610-316.043L1496.610-285.047L1563.029-285.047L1563.029-218.075L1496.610-218.075L1496.610-66.972L1563.029-66.972L1563.029 0Z"/>
      <path class="fg" d="M1998.087 8.302L1998.087 8.302Q1970.966 8.302 1945.782 2.767Q1920.598-2.767 1902.887-12.177L1902.887-12.177L1910.082-78.596Q1928.901-66.972 1951.594-59.777Q1974.287-52.582 1994.212-52.582L1994.212-52.582Q2011.924-52.582 2025.208-59.223Q2038.492-65.865 2038.492-79.703L2038.492-79.703Q2038.492-92.986 2024.378-99.075Q2010.264-105.163 1980.929-116.233L1980.929-116.233Q1969.859-120.661 1956.298-126.196Q1942.738-131.731 1930.561-140.863Q1918.384-149.996 1910.635-164.663Q1902.887-179.331 1902.887-201.470L1902.887-201.470Q1902.887-231.359 1918.108-251.561Q1933.329-271.764 1959.896-282.280Q1986.464-292.796 2019.673-292.796L2019.673-292.796Q2042.366-292.796 2064.229-288.368Q2086.092-283.940 2106.017-276.745L2106.017-276.745L2095.501-210.880Q2079.450-220.289 2059.248-226.101Q2039.045-231.912 2021.333-231.912L2021.333-231.912Q2004.175-231.912 1992.829-226.101Q1981.482-220.289 1981.482-208.112L1981.482-208.112Q1981.482-198.149 1989.231-192.338Q1996.980-186.526 2010.264-182.375Q2023.547-178.224 2039.599-171.582L2039.599-171.582Q2055.650-165.494 2073.638-156.084Q2091.627-146.675 2104.357-129.517Q2117.087-112.358 2117.087-82.470L2117.087-82.470Q2117.087-50.921 2101.313-30.719Q2085.538-10.516 2058.694-1.107Q2031.850 8.302 1998.087 8.302Z M2269.850 0L2191.808 0L2191.808-404.048L2269.850-404.048L2269.850-243.536Q2287.562-269.550 2309.702-281.173Q2331.841-292.796 2360.069-292.796L2360.069-292.796Q2406.009-292.796 2432.023-265.398Q2458.037-238.001 2458.037-189.294L2458.037-189.294L2458.037 0L2379.995 0L2379.995-177.117Q2379.995-199.810 2368.925-211.987Q2357.855-224.163 2339.037-224.163L2339.037-224.163Q2318.004-224.163 2299.462-209.773Q2280.920-195.382 2269.850-172.689L2269.850-172.689L2269.850 0Z"/>
    </g>
    <ellipse class="cf" cx="2116.07" cy="991.04" rx="70.4" ry="49.47"/>
    <ellipse class="cf" cx="2118.89" cy="1097.73" rx="57.56" ry="156.46"/>
    <ellipse class="cf" cx="2116.07" cy="1254.2" rx="23.46" ry="42.36"/>
    <ellipse class="cf" cx="2139.53" cy="1254.2" rx="23.46" ry="42.36" transform="translate(-299.93 807.4) rotate(-20)"/>
    <ellipse class="cf" cx="2092.6" cy="1254.2" rx="42.36" ry="23.46" transform="translate(198.3327 2791.6397) rotate(-70)"/>
    <ellipse class="eye" cx="2077.55" cy="949.62" rx="11.75" ry="7.42" transform="translate(-199.5 767.83) rotate(-20)"/>
    <ellipse class="eye" cx="2159.6" cy="949.62" rx="7.42" ry="11.75" transform="translate(528.6202 2654.1858) rotate(-70)"/>
    <rect class="cf" x="2078.37" y="830.66" width="13.17" height="128.63" transform="translate(-180.36 767.07) rotate(-20)"/>
    <rect class="cf" x="2141.68" y="830.66" width="13.17" height="128.63" transform="translate(435.66 -680.78) rotate(20)"/>
    <path class="s45" d="M1996.8,991.04c7.13,53.79,64.62,92.57,125.62,88.67,54.77-3.5,101.08-40.68,107.08-88.67"/>
    <path class="s20" d="M1980.74,936.15c-16.77,5.38-27.62,15.76-27.92,26.89-.4,14.65,17.49,29.73,40.33,29.94,24.04.23,40.5-16.14,41.79-29.94,1.4-15.01-15.31-25.29-18-26.89"/>
    <path class="s20" d="M2225.04,936.15c-16.77,5.38-27.62,15.76-27.92,26.89-.4,14.65,17.49,29.73,40.33,29.94,24.04.23,40.5-16.14,41.79-29.94,1.4-15.01-15.31-25.29-18-26.89"/>
  </g>
</svg>
